<?xml version="1.0" encoding="UTF-8" standalone="no"?>
<!-- Created with Inkscape (http://www.inkscape.org/) -->

<svg
   xmlns:dc="http://purl.org/dc/elements/1.1/"
   xmlns:cc="http://creativecommons.org/ns#"
   xmlns:rdf="http://www.w3.org/1999/02/22-rdf-syntax-ns#"
   xmlns:svg="http://www.w3.org/2000/svg"
   xmlns="http://www.w3.org/2000/svg"
   xmlns:sodipodi="http://sodipodi.sourceforge.net/DTD/sodipodi-0.dtd"
   xmlns:inkscape="http://www.inkscape.org/namespaces/inkscape"
   width="210mm"
   height="297mm"
   viewBox="0 0 744.09448819 1052.3622047"
   id="svg2"
   version="1.1"
   inkscape:version="0.92.1 r15371"
   sodipodi:docname="Vambits2.svg">
  <defs
     id="defs4">
    <clipPath
       id="clipPath4150"
       clipPathUnits="userSpaceOnUse">
      <path
         inkscape:connector-curvature="0"
         id="path4152"
         d="m 0,1133.858 2267.717,0 L 2267.717,0 0,0 0,1133.858 Z" />
    </clipPath>
    <clipPath
       id="clipPath10823"
       clipPathUnits="userSpaceOnUse">
      <path
         inkscape:connector-curvature="0"
         id="path10825"
         d="m 0,1133.858 2267.717,0 L 2267.717,0 0,0 0,1133.858 Z" />
    </clipPath>
  </defs>
  <sodipodi:namedview
     id="base"
     pagecolor="#ffffff"
     bordercolor="#666666"
     borderopacity="1.0"
     inkscape:pageopacity="0.0"
     inkscape:pageshadow="2"
     inkscape:zoom="0.7"
     inkscape:cx="333.96354"
     inkscape:cy="780.72475"
     inkscape:document-units="mm"
     inkscape:current-layer="layer1"
     showgrid="false"
     inkscape:object-nodes="true"
     inkscape:window-width="1366"
     inkscape:window-height="715"
     inkscape:window-x="-8"
     inkscape:window-y="22"
     inkscape:window-maximized="1"
     inkscape:snap-global="false"
     inkscape:snap-object-midpoints="true"
     inkscape:measure-start="-2447.22,256.831"
     inkscape:measure-end="-2437.25,274.13"
     inkscape:snap-grids="true"
     inkscape:object-paths="true">
    <inkscape:grid
       type="xygrid"
       id="grid25182"
       units="mm"
       spacingx="3.5433071"
       spacingy="3.5433071" />
  </sodipodi:namedview>
  <metadata
     id="metadata7">
    <rdf:RDF>
      <cc:Work
         rdf:about="">
        <dc:format>image/svg+xml</dc:format>
        <dc:type
           rdf:resource="http://purl.org/dc/dcmitype/StillImage" />
        <dc:title />
      </cc:Work>
    </rdf:RDF>
  </metadata>
  <g
     inkscape:label="Layer 1"
     inkscape:groupmode="layer"
     id="layer1">
    <path
       d="m 16.102777,18.64564 v 93.135 h 10.1275 c 0,-0.25 0.21,-0.4525 0.4713,-0.4525 0.2612,0 0.4724,0.2025 0.4724,0.4525 0,0.24875 -0.2112,0.45125 -0.4724,0.45125 v 9.24625 c 0.2613,0 0.4713,0.20375 0.4713,0.45375 0,0.24875 -0.21,0.45125 -0.4713,0.45125 -0.26,0 -0.4724,-0.2025 -0.4724,-0.45125 h -10.1288 v 38.32747 l 14.4975,0.001 v -0.001 l 12.19,-21.38622 h 66.227503 v 0 l 12.19,21.38622 v 0.001 h 14.4975 v -38.32747 h -10.1288 c 0,0.24875 -0.2124,0.45125 -0.4724,0.45125 -0.2613,0 -0.4713,-0.2025 -0.4713,-0.45125 0,-0.25 0.21,-0.45375 0.4713,-0.45375 v -9.24625 c -0.2612,0 -0.4724,-0.2025 -0.4724,-0.45125 0,-0.25 0.2112,-0.4525 0.4724,-0.4525 0.2613,0 0.4713,0.2025 0.4713,0.4525 h 10.1275 v -93.1356 z"
       style="fill:none;stroke:#000000;stroke-width:0.9375;stroke-linecap:butt;stroke-linejoin:miter;stroke-miterlimit:4;stroke-dasharray:none;stroke-opacity:1"
       id="path25176"
       inkscape:connector-curvature="0"
       sodipodi:nodetypes="cccssccsscccccccccccccssccsscccc" />
    <path
       d="m 52.480277,65.68301 h 46.8725 l 5.491203,9.855 7.4325,-9.855 h 12.6475 v 24.005 1.97375 c 0,5.23375 -5.12,9.47625 -11.4325,9.47625 H 38.341477 c -6.3137,0 -11.4325,-4.2425 -11.4325,-9.47625 v -1.97375 -24.005 h 12.6488 l 7.4312,9.855 z"
       style="fill:none;stroke:#000000;stroke-width:0.9375;stroke-linecap:butt;stroke-linejoin:miter;stroke-miterlimit:4;stroke-dasharray:none;stroke-opacity:1"
       id="path25185"
       inkscape:connector-curvature="0" />
    <path
       d="m 98.360477,50.29113 c 0,1.3175 0.9225,2.385 2.061203,2.385 1.1375,0 2.0588,-1.0675 2.0588,-2.385 v -0.1425 c 0,-4.71875 3.8525,-8.54375 8.6012,-8.54375 4.7513,0 8.6025,3.825 8.6025,8.54375 l -0.01,0.1425 c 0,1.3175 0.925,2.385 2.06,2.385 1.1362,0 2.0637,-1.0675 2.0637,-2.385 v -0.13875 c 0,-7.01999 -5.6925,-12.70874 -12.7087,-12.70874 -7.0188,0 -12.708803,5.68875 -12.708803,12.70874 l -0.021,0.13875 z"
       style="fill:none;stroke:#000000;stroke-width:0.9375;stroke-linecap:butt;stroke-linejoin:miter;stroke-miterlimit:4;stroke-dasharray:none;stroke-opacity:1"
       id="path25187"
       inkscape:connector-curvature="0" />
    <path
       d="m 28.036977,50.29113 c 0,1.3175 0.9225,2.385 2.06,2.385 1.1387,0 2.0612,-1.0675 2.0612,-2.385 v -0.1425 c 0,-4.71875 3.8488,-8.54375 8.6013,-8.54375 4.75,0 8.6012,3.825 8.6012,8.54375 l -0.01,0.1425 c 0,1.3175 0.9225,2.385 2.06,2.385 1.1375,0 2.0613,-1.0675 2.0613,-2.385 v -0.13875 c 0,-7.01999 -5.6888,-12.70874 -12.7075,-12.70874 -7.0213,0 -12.7075,5.68875 -12.7075,12.70874 l -0.023,0.13875 z"
       style="fill:none;stroke:#000000;stroke-width:0.9375;stroke-linecap:butt;stroke-linejoin:miter;stroke-miterlimit:4;stroke-dasharray:none;stroke-opacity:1"
       id="path25189"
       inkscape:connector-curvature="0" />
    <path
       d="m 83.457877,215.24209 c 0,4.71375 -3.82,8.535 -8.535,8.535 -4.715,0 -8.5363,-3.82125 -8.5363,-8.535 0,-4.71375 3.8213,-8.535 8.5363,-8.535 4.715,0 8.535,3.82125 8.535,8.535 z"
       style="fill:none;stroke:#000000;stroke-width:0.9375;stroke-linecap:butt;stroke-linejoin:miter;stroke-miterlimit:4;stroke-dasharray:none;stroke-opacity:1"
       id="path1946"
       inkscape:connector-curvature="0" />
    <path
       d="m 70.957877,232.74209 c 0,4.71375 -3.8225,8.535 -8.5388,8.535 -4.7162,0 -8.5375,-3.82125 -8.5375,-8.535 0,-4.71375 3.8213,-8.535 8.5375,-8.535 4.7163,0 8.5388,3.82125 8.5388,8.535 z"
       style="fill:none;stroke:#000000;stroke-width:0.9375;stroke-linecap:butt;stroke-linejoin:miter;stroke-miterlimit:4;stroke-dasharray:none;stroke-opacity:1"
       id="path1948"
       inkscape:connector-curvature="0" />
    <path
       d="m 95.957877,232.74209 c 0,4.71375 -3.82,8.535 -8.5363,8.535 -4.7137,0 -8.535,-3.82125 -8.535,-8.535 0,-4.71375 3.8213,-8.535 8.535,-8.535 4.7163,0 8.5363,3.82125 8.5363,8.535 z"
       style="fill:none;stroke:#000000;stroke-width:0.9375;stroke-linecap:butt;stroke-linejoin:miter;stroke-miterlimit:4;stroke-dasharray:none;stroke-opacity:1"
       id="path1950"
       inkscape:connector-curvature="0" />
    <path
       inkscape:connector-curvature="0"
       id="path1956"
       style="fill:none;fill-opacity:1;fill-rule:nonzero;stroke:#868686;stroke-width:0.9375;stroke-miterlimit:4;stroke-dasharray:none;stroke-opacity:1"
       d="m 89.751277,265.72446 h -2.625 v 6.56 h 2.625 z m -26.2375,0 h -2.625 v 6.56 h 2.625 z m -6.5613,7.87125 v -9.18375 h 6.5613 v -3.935 h -9.1838 v 13.11875 h -6.56 l -3.9362,-3.935 v -10.49625 h 3.9362 v 11.80875 h 2.6238 v -10.49625 l 1.3112,-1.3125 h 14.4325 l 1.3113,1.3125 v 3.935 h 2.6237 v -5.2475 h 1.3125 l 3.9363,3.93625 v 1.31125 h 1.3112 v -5.2475 h 1.3113 l 3.9362,3.93625 v 1.31125 h 1.3113 v -5.2475 h 26.240003 v 1.3125 h -2.6238 v 13.11875 l -3.9362,3.93625 v -11.8075 h -2.6238 v 7.87125 h -3.936203 v -9.18375 h 6.560003 v -3.935 h -2.6238 v 2.62375 h -3.936203 v -2.62375 h -9.1838 v 3.935 h 5.2488 l 1.3112,1.3125 v 7.87125 h -10.4962 v -7.87125 h -2.6238 v 7.87125 h -3.935 v -7.87125 h -2.6237 v 7.87125 h -3.9362 v -7.87125 h -2.6238 v 7.87125 h -6.56 v 3.93625 z" />
    <path
       inkscape:connector-curvature="0"
       id="path1960"
       d="m 134.73098,171.19908 -0.023,93.135 h -10.1025 c 0,-0.25 -0.2113,-0.4525 -0.4725,-0.4525 -0.26,0 -0.4712,0.2025 -0.4712,0.4525 0,0.24875 0.2112,0.45125 0.4712,0.45125 v 9.24625 c -0.2612,0 -0.4712,0.20375 -0.4712,0.45375 0,0.24875 0.21,0.45125 0.4712,0.45125 0.2601,0 0.4713,-0.2025 0.4713,-0.45125 h 10.105 l 0.023,38.32875 h -14.4962 v -10e-4 l -12.1901,-21.38625 H 41.818477 v 0 l -12.19,21.38625 v 10e-4 h -14.4975 l -0.023,-38.31625 v -0.006 h 10.1025 c 0,0.25 0.2113,0.4525 0.4725,0.4525 0.2612,0 0.4725,-0.2025 0.4725,-0.4525 0,-0.25 -0.2113,-0.45375 -0.4725,-0.45375 v -9.245 c 0.26,0 0.4712,-0.2025 0.4712,-0.4525 0,-0.25 -0.2112,-0.45375 -0.4712,-0.45375 -0.2613,0 -0.4725,0.20375 -0.4725,0.45375 h -10.105 l 0.02,-93.14125 54.7313,9.7e-4 v 1.53003 c 0.9324,2.33625 0.9375,4.7225 -0.01,7.0575 v -0.01 1.52375 c -0.25,0 -0.4526,0.2125 -0.4526,0.47375 0,0.26125 0.2026,0.47125 0.4526,0.47125 0.2487,0 0.4524,-0.21 0.4524,-0.47125 l 9.2451,0.002 c 0,0.26 0.2024,0.47125 0.4524,0.47125 0.25,0 0.4538,-0.21125 0.4538,-0.47125 0,-0.26125 -0.2038,-0.47375 -0.4538,-0.47375 v -1.52 c -0.9337,-2.335 -0.9375,-4.7225 0,-7.05625 v -1.52625 z"
       style="fill:none;stroke:#000000;stroke-width:0.9375;stroke-linecap:butt;stroke-linejoin:miter;stroke-miterlimit:4;stroke-dasharray:none;stroke-opacity:1"
       sodipodi:nodetypes="cccssccssccccccccccccccssccssccccccccssccssccccc" />
    <path
       d="m 169.07768,380.43525 c -0.2588,0 -0.4713,0.21 -0.4713,0.47 0,0.2612 0.2125,0.4725 0.4713,0.4725 0.2612,0 0.4738,-0.2113 0.4738,-0.4725 h 9.6537 c 0,0.2613 0.21,0.4713 0.4713,0.4713 0.2587,0 0.4699,-0.21 0.4699,-0.4713 0,-0.26 -0.2112,-0.4725 -0.4699,-0.4725 v -9.66251 c 0.2587,0 0.4699,-0.2125 0.4699,-0.4725 0,-0.2612 -0.2112,-0.4712 -0.4699,-0.4712 -0.2613,0 -0.4713,0.21 -0.4713,0.4712 h -9.6537 c 0,-0.2612 -0.2126,-0.4725 -0.4738,-0.4725 -0.2588,0 -0.4713,0.2113 -0.4713,0.4725 0,0.2588 0.2125,0.4713 0.4713,0.4713 v 9.67001 z"
       style="fill:none;stroke:#000000;stroke-width:0.9375;stroke-linecap:butt;stroke-linejoin:miter;stroke-miterlimit:4;stroke-dasharray:none;stroke-opacity:1"
       id="path1974"
       inkscape:connector-curvature="0" />
    <path
       d="m 223.19388,380.43165 c -0.2613,0 -0.4713,0.2125 -0.4713,0.4725 0,0.2612 0.21,0.4712 0.4713,0.4712 0.2612,0 0.4712,-0.21 0.4712,-0.4712 h 9.6538 c 0,0.26 0.2125,0.47 0.4737,0.47 0.2588,0 0.47,-0.21 0.47,-0.47 0,-0.2613 -0.2112,-0.4738 -0.47,-0.4738 v -9.66501 c 0.2588,0 0.47,-0.2125 0.47,-0.4712 0,-0.2613 -0.2112,-0.4725 -0.47,-0.4725 -0.2612,0 -0.4737,0.2112 -0.4737,0.4725 h -9.6538 c 0,-0.2613 -0.21,-0.4725 -0.4712,-0.4725 -0.2613,0 -0.4713,0.2112 -0.4713,0.4725 0,0.2587 0.21,0.4712 0.4713,0.4712 z"
       style="fill:none;stroke:#000000;stroke-width:0.9375;stroke-linecap:butt;stroke-linejoin:miter;stroke-miterlimit:4;stroke-dasharray:none;stroke-opacity:1"
       id="path1976"
       inkscape:connector-curvature="0" />
    <path
       d="m 152.26618,424.76875 v 0 -43.8537 h -10.63 v -10.63011 h 10.63 v 0 -43.85251 h 43.855 v -10.63 h 10.6275 v 10.63 h 43.855 v 43.85251 h 10.63 v 10.63001 h -10.63 v 43.8537 z"
       style="fill:none;stroke:#000000;stroke-width:0.9375;stroke-linecap:butt;stroke-linejoin:miter;stroke-miterlimit:4;stroke-dasharray:none;stroke-opacity:1"
       id="path1978"
       inkscape:connector-curvature="0" />
    <path
       d="m 268.27148,17.69007 44.0313,-0.002 v 1.53 c 0.9324,2.335 0.9425,4.58875 0,6.9225 v 1.65 c -0.2525,0 -0.455,0.21125 -0.455,0.47125 0,0.26125 0.2025,0.47375 0.455,0.47375 0.2487,0 0.4512,-0.2125 0.4512,-0.47375 l 9.245,0.002 c 0,0.26125 0.2038,0.47375 0.4538,0.47375 0.25,0 0.4525,-0.2125 0.4525,-0.47375 0,-0.26125 -0.2025,-0.47125 -0.4525,-0.47125 v -1.52 c -0.9337,-2.3375 -0.9437,-4.72375 0,-7.05875 v -1.52375 l 44.0287,-0.0187 v 24.135 h -1.5287 c -2.335,0.935 -4.5888,0.9425 -6.9225,0 h -1.6513 c 0,-0.24875 -0.2112,-0.45125 -0.4712,-0.45125 -0.2613,0 -0.4738,0.2025 -0.4738,0.45125 0,0.25125 0.2125,0.455 0.4738,0.455 v 9.24375 c -0.2613,0 -0.4725,0.20375 -0.4725,0.4525 0,0.25125 0.2112,0.45375 0.4725,0.45375 0.2612,0 0.4712,-0.2025 0.4712,-0.45375 l 1.5213,0.001 c 2.3362,-0.93375 4.7225,-0.9425 7.0587,-0.001 h 1.5225 v 37.59375 h -21.0787 l -7.4313,-9.85375 -5.4912,9.85375 h -30.205 l -5.49,-9.85375 -7.4325,9.85375 h -21.0813 V 51.97762 h 1.5288 c 2.3362,-0.935 4.5887,-0.9425 6.9237,0 h 1.6488 c 0,0.24875 0.2112,0.45125 0.4725,0.45125 0.2612,0 0.4725,-0.2025 0.4725,-0.45125 0,-0.25 -0.2113,-0.45375 -0.4725,-0.45375 v -9.245 c 0.2612,0 0.4725,-0.20375 0.4725,-0.4525 0,-0.25 -0.2113,-0.4525 -0.4725,-0.4525 -0.2613,0 -0.4725,0.2025 -0.4725,0.4525 l -1.52,-10e-4 c -2.3363,0.93375 -4.7238,0.94375 -7.0575,10e-4 l -1.5244,-2e-5 z"
       style="fill:none;stroke:#000000;stroke-width:0.9375;stroke-linecap:butt;stroke-linejoin:miter;stroke-miterlimit:4;stroke-dasharray:none;stroke-opacity:1"
       id="path1984"
       inkscape:connector-curvature="0"
       sodipodi:nodetypes="cccccssccsscccccccccssccssccccccccccccccccssccssccccc" />
    <path
       id="path1988"
       style="fill:none;stroke:#000000;stroke-width:0.9375;stroke-linecap:butt;stroke-linejoin:miter;stroke-miterlimit:4;stroke-dasharray:none;stroke-opacity:1"
       d="m 366.49988,123.20576 v 0.001 h -1.53 c -2.3362,0.93375 -4.5887,0.94125 -6.9237,0 h -1.6475 c 0,-0.25125 -0.2125,-0.45375 -0.4738,-0.45375 -0.2612,0 -0.4712,0.2025 -0.4712,0.45375 0,0.25 0.21,0.4525 0.4712,0.4525 v 9.245 c -0.2599,0 -0.4712,0.2025 -0.4712,0.4525 0,0.25125 0.2113,0.45375 0.4712,0.45375 0.2613,0 0.4738,-0.2025 0.4738,-0.45375 l 1.52,0.003 c 2.335,-0.935 4.7225,-0.945 7.0562,-0.003 h 1.5263 v 37.59375 h -98.21 v -37.575 h 1.53 c 2.335,-0.93375 4.5875,-0.9425 6.9225,0 h 1.65 c 0,0.25125 0.2125,0.45375 0.4725,0.45375 0.2612,0 0.4725,-0.2025 0.4725,-0.45375 0,-0.24875 -0.2113,-0.4525 -0.4725,-0.4525 v -9.24375 c 0.26,0 0.4712,-0.205 0.4712,-0.455 0,-0.24875 -0.2112,-0.45125 -0.4712,-0.45125 -0.2613,0 -0.4725,0.2025 -0.4725,0.45125 h -1.5213 c -2.335,0.9325 -4.7225,0.9425 -7.0575,0 h -1.5237 v 0 -24.13497 l 44.0266,-0.003 v 1.53137 c 0.935,2.335 0.9425,4.5875 0,6.9225 v 1.64873 c -0.2488,0 -0.4513,0.2125 -0.4513,0.4725 0,0.26125 0.2025,0.4725 0.4513,0.4725 0.25,0 0.4537,-0.21125 0.4537,-0.4725 l 9.245,0.002 c 0,0.26 0.2038,0.4725 0.4525,0.4725 0.25,0 0.4525,-0.2125 0.4525,-0.4725 0,-0.26125 -0.2025,-0.4725 -0.4525,-0.4725 v -1.52123 c -0.9338,-2.335 -0.9438,-4.72125 0,-7.05625 v -1.525 l 44.0309,-0.0189 z"
       inkscape:connector-curvature="0"
       sodipodi:nodetypes="cccccssccssccccccccccssccssccccccccccssccsscccccc" />
    <path
       d="m 310.49708,188.46161 h -32.8863 v 33.1288 l -10.9175,0.01 v 10.6312 l 10.9175,-0.01 v 32.88 h 32.8863 l 0.01,10.9162 h 10.63 v -10.9162 h 33.1212 v -32.88 l 10.685,0.01 v -10.6312 l -10.685,-0.01 v -33.1288 h -33.1212 v -10.6862 h -10.63 z"
       style="fill:none;stroke:#000000;stroke-width:0.9375;stroke-linecap:butt;stroke-linejoin:miter;stroke-miterlimit:4;stroke-dasharray:none;stroke-opacity:1"
       id="path1992"
       inkscape:connector-curvature="0" />
    <path
       d="m 320.25328,283.37141 v 1.5238 c -0.9425,2.3337 -0.9375,4.7212 -0.01,7.0575 v 1.5212 c 0.2488,0 0.4513,0.21 0.4513,0.4713 0,0.2612 -0.2025,0.4737 -0.4513,0.4737 -0.2487,0 -0.4537,-0.2125 -0.4537,-0.4737 h -9.2438 c 0,0.2612 -0.205,0.4737 -0.4537,0.4737 -0.2488,0 -0.4513,-0.2125 -0.4513,-0.4737 0,-0.2613 0.2025,-0.4713 0.4513,-0.4713 v -1.5262 l 0.01,0.01 c 0.9425,-2.3338 0.9375,-4.7213 0,-7.0576 v -1.5287 h -33.3888 v 23.8988 h -10.6612 v 10.6299 h 10.6612 v 37.3338 h 76.8925 v -37.3338 h 10.6851 v -10.6299 h -10.6851 v -23.8988 h -33.355 z"
       style="fill:none;stroke:#000000;stroke-width:0.9375;stroke-linecap:butt;stroke-linejoin:miter;stroke-miterlimit:4;stroke-dasharray:none;stroke-opacity:1"
       id="path1994"
       inkscape:connector-curvature="0" />
    <path
       inkscape:connector-curvature="0"
       id="path1996"
       style="fill:none;stroke:#000000;stroke-width:0.9375;stroke-linecap:butt;stroke-linejoin:miter;stroke-miterlimit:4;stroke-dasharray:none;stroke-opacity:1"
       d="m 320.25328,361.9739 v 1.5238 c -0.9425,2.3337 -0.9375,4.7212 -0.01,7.0575 v 1.5212 c 0.2488,0 0.4513,0.21 0.4513,0.4713 0,0.2612 -0.2025,0.4737 -0.4513,0.4737 -0.2487,0 -0.4537,-0.2125 -0.4537,-0.4737 h -9.2438 c 0,0.2612 -0.205,0.4737 -0.4537,0.4737 -0.2488,0 -0.4513,-0.2125 -0.4513,-0.4737 0,-0.2613 0.2025,-0.4713 0.4513,-0.4713 v -1.5262 l 0.01,0.01 c 0.9425,-2.3338 0.9375,-4.7213 0,-7.0576 v -1.5287 h -33.3888 v 23.8988 h -10.6612 v 10.6299 h 10.6612 v 37.3338 h 76.8925 v -37.3338 h 10.6851 v -10.6299 h -10.6851 v -23.8988 h -33.355 z" />
    <path
       id="path2000"
       style="fill:none;stroke:#000000;stroke-width:0.9375;stroke-linecap:butt;stroke-linejoin:miter;stroke-miterlimit:4;stroke-dasharray:none;stroke-opacity:1"
       d="m 14.680477,536.61121 h 10.105 c 0,-0.25 0.2113,-0.4525 0.4725,-0.4525 0.26,0 0.47,0.2025 0.47,0.4525 0,0.24875 -0.21,0.45125 -0.47,0.45125 v 9.24625 c 0.2613,0 0.4738,0.20375 0.4738,0.45375 0,0.24875 -0.2125,0.45125 -0.4738,0.45125 -0.2612,0 -0.4712,-0.2025 -0.4712,-0.45125 h -10.1025 l 0.027,38.32863 h 14.4976 v -10e-4 l 12.19,-21.38625 v 0 h 66.227503 l 12.19,21.38625 v 10e-4 l 14.4975,-10e-4 v -38.3275 h -10.1288 c 0,0.24875 -0.2125,0.45125 -0.4725,0.45125 -0.2612,0 -0.4712,-0.2025 -0.4712,-0.45125 0,-0.25 0.21,-0.45375 0.4712,-0.45375 v -9.24625 c -0.2612,0 -0.4725,-0.2025 -0.4725,-0.45125 0,-0.25 0.2113,-0.4525 0.4725,-0.4525 0.2613,0 0.4713,0.2025 0.4713,0.4525 h 10.1275 v -93.135 H 14.706377 l -0.026,93.13487"
       inkscape:connector-curvature="0"
       sodipodi:nodetypes="ccssccsscccccccccccccssccssccccc" />
    <path
       d="m 80.041977,490.51359 -5.545,10.6275 c 0,0 -5.5112,-10.6275 -5.51,-10.6275 h -17.9262 l -5.49,9.855 -7.4325,-9.855 h -12.6488 v 24.005 1.97375 c 0,5.23375 5.12,9.47625 11.4338,9.47625 h 75.148703 c 6.315,0 11.4338,-4.2425 11.4338,-9.47625 v -1.97375 -24.005 h -12.65 l -7.4313,9.855 -5.491203,-9.855 z"
       style="fill:none;stroke:#000000;stroke-width:0.9375;stroke-linecap:butt;stroke-linejoin:miter;stroke-miterlimit:4;stroke-dasharray:none;stroke-opacity:1"
       id="path2002"
       inkscape:connector-curvature="0" />
    <path
       d="m 235.51868,489.54713 h -46.8725 l -5.4913,9.855 -7.4325,-9.855 h -12.6475 v 24.005 1.97375 c 0,5.23375 5.12,9.47625 11.4325,9.47625 h 75.15 c 6.3138,0 11.4325,-4.2425 11.4325,-9.47625 v -1.97375 -24.005 h -12.6487 l -7.4313,9.855 z"
       style="fill:none;stroke:#000000;stroke-width:0.9375;stroke-linecap:butt;stroke-linejoin:miter;stroke-miterlimit:4;stroke-dasharray:none;stroke-opacity:1"
       id="path2005"
       inkscape:connector-curvature="0" />
    <path
       id="path2009"
       style="fill:none;stroke:#000000;stroke-width:0.9375;stroke-linecap:butt;stroke-linejoin:miter;stroke-miterlimit:4;stroke-dasharray:none;stroke-opacity:1"
       d="m 152.29628,584.12451 h 14.4975 v -10e-4 l 12.19,-21.38625 v 0 h 66.2275 l 12.19,21.38625 v 10e-4 l 14.4975,-10e-4 v -38.3275 h -10.1288 c 0,0.24875 -0.2125,0.45125 -0.4725,0.45125 -0.2612,0 -0.4712,-0.2025 -0.4712,-0.45125 0,-0.25 0.21,-0.45375 0.4712,-0.45375 v -9.24625 c -0.2612,0 -0.4725,-0.2025 -0.4725,-0.45125 0,-0.25 0.2113,-0.4525 0.4725,-0.4525 0.2613,0 0.4713,0.2025 0.4713,0.4525 h 10.1275 v -93.135 h -119.605 l -0.026,93.13487 m 0,0 h 10.105 c 0,-0.25 0.2113,-0.4525 0.4725,-0.4525 0.26,0 0.47,0.2025 0.47,0.4525 0,0.24875 -0.21,0.45125 -0.47,0.45125 v 9.24625 c 0.2613,0 0.4738,0.20375 0.4738,0.45375 0,0.24875 -0.2125,0.45125 -0.4738,0.45125 -0.2612,0 -0.4712,-0.2025 -0.4712,-0.45125 h -10.1025 l 0.027,38.32863"
       inkscape:connector-curvature="0" />
    <path
       d="m 261.08988,477.31201 c 0,1.38125 -1.12,2.5 -2.5,2.5 -1.38,0 -2.5,-1.11875 -2.5,-2.5 v -16.77625 c 0,-1.38125 1.12,-2.5 2.5,-2.5 1.38,0 2.5,1.11875 2.5,2.5 z"
       style="fill:none;stroke:#000000;stroke-width:0.9375;stroke-linecap:butt;stroke-linejoin:miter;stroke-miterlimit:4;stroke-dasharray:none;stroke-opacity:1"
       id="path2011"
       inkscape:connector-curvature="0" />
    <path
       d="m 168.07478,477.31201 c 0,1.38125 -1.12,2.5 -2.5,2.5 -1.38,0 -2.5,-1.11875 -2.5,-2.5 v -16.77625 c 0,-1.38125 1.12,-2.5 2.5,-2.5 1.38,0 2.5,1.11875 2.5,2.5 z"
       style="fill:none;stroke:#000000;stroke-width:0.9375;stroke-linecap:butt;stroke-linejoin:miter;stroke-miterlimit:4;stroke-dasharray:none;stroke-opacity:1"
       id="path2013"
       inkscape:connector-curvature="0" />
    <path
       d="m 371.15748,489.54952 h -46.8725 l -5.4913,9.855 -7.4325,-9.855 h -12.6475 v 24.005 1.97375 c 0,5.23375 5.12,9.47625 11.4325,9.47625 h 75.15 c 6.3138,0 11.4325,-4.2425 11.4325,-9.47625 v -1.97375 -24.005 h -12.6487 l -7.4313,9.855 z"
       style="fill:none;stroke:#000000;stroke-width:0.9375;stroke-linecap:butt;stroke-linejoin:miter;stroke-miterlimit:4;stroke-dasharray:none;stroke-opacity:1"
       id="path2015"
       inkscape:connector-curvature="0" />
    <path
       id="path2019"
       style="fill:none;stroke:#000000;stroke-width:0.9375;stroke-linecap:butt;stroke-linejoin:miter;stroke-miterlimit:4;stroke-dasharray:none;stroke-opacity:1"
       d="m 287.93518,584.12689 h 14.4975 v -10e-4 l 12.19,-21.38625 v 0 h 66.2275 l 12.19,21.38625 v 10e-4 l 14.4975,-10e-4 v -38.3275 h -10.1288 c 0,0.24875 -0.2125,0.45125 -0.4725,0.45125 -0.2612,0 -0.4712,-0.2025 -0.4712,-0.45125 0,-0.25 0.21,-0.45375 0.4712,-0.45375 v -9.24625 c -0.2612,0 -0.4725,-0.2025 -0.4725,-0.45125 0,-0.25 0.2113,-0.4525 0.4725,-0.4525 0.2613,0 0.4713,0.2025 0.4713,0.4525 h 10.1275 v -93.135 h -119.605 l -0.026,93.13488 m 0,0 h 10.105 c 0,-0.25 0.2113,-0.4525 0.4725,-0.4525 0.26,0 0.47,0.2025 0.47,0.4525 0,0.24875 -0.21,0.45125 -0.47,0.45125 v 9.24625 c 0.2613,0 0.4738,0.20375 0.4738,0.45375 0,0.24875 -0.2125,0.45125 -0.4738,0.45125 -0.2612,0 -0.4712,-0.2025 -0.4712,-0.45125 h -10.1025 l 0.027,38.32862"
       inkscape:connector-curvature="0" />
    <path
       d="m 308.42308,461.27439 c -3.7225,0.76125 -6.5212,4.0525 -6.5212,8 0,4.51 3.6562,8.16625 8.1662,8.16625 4.51,0 8.1663,-3.65625 8.1663,-8.16625 0,-3.96 -2.8175,-7.26 -6.5575,-8.0075 l 0.015,-3.2325 c 5.5012,0.78875 9.73,5.52 9.73,11.24 0,6.27 -5.0838,11.35375 -11.3538,11.35375 -6.2712,0 -11.355,-5.08375 -11.355,-11.35375 0,-5.7175 4.2238,-10.44625 9.7238,-11.2375 l -0.014,3.2375 z"
       style="fill:none;stroke:#000000;stroke-width:0.9375;stroke-linecap:butt;stroke-linejoin:miter;stroke-miterlimit:4;stroke-dasharray:none;stroke-opacity:1"
       id="path2021"
       inkscape:connector-curvature="0" />
    <path
       d="m 383.56468,461.27377 c -3.7237,0.76125 -6.5212,4.0525 -6.5212,8 0,4.51 3.655,8.1675 8.1662,8.1675 4.51,0 8.165,-3.6575 8.165,-8.1675 0,-3.96 -2.8175,-7.26 -6.5575,-8.0075 l 0.016,-3.2325 c 5.5013,0.78875 9.7288,5.52 9.7288,11.24 0,6.27 -5.0825,11.355 -11.3525,11.355 -6.2713,0 -11.355,-5.085 -11.355,-11.355 0,-5.7175 4.2237,-10.44625 9.7225,-11.2375 l -0.013,3.2375 z"
       style="fill:none;stroke:#000000;stroke-width:0.9375;stroke-linecap:butt;stroke-linejoin:miter;stroke-miterlimit:4;stroke-dasharray:none;stroke-opacity:1"
       id="path2023"
       inkscape:connector-curvature="0" />
    <path
       id="path2029"
       style="fill:none;stroke:#000000;stroke-width:0.9375;stroke-linecap:butt;stroke-linejoin:miter;stroke-miterlimit:4;stroke-dasharray:none;stroke-opacity:1"
       d="m 441.70898,432.74745 -0.02,-44.03 h -1.5225 c -2.3362,-0.9428 -4.7225,-0.9328 -7.0587,0 h -1.5213 c 0,0.2512 -0.21,0.4537 -0.4712,0.4537 -0.2613,0 -0.4738,-0.2025 -0.4738,-0.4537 0,-0.25 0.2125,-0.4525 0.4738,-0.4525 v -9.245 c -0.2613,0 -0.4738,-0.2038 -0.4738,-0.4525 0,-0.2513 0.2125,-0.4538 0.4738,-0.4538 0.26,0 0.4712,0.2025 0.4712,0.4538 h 1.6513 c 2.3337,0.9425 4.5862,0.9325 6.9225,0 h 1.5287 v -44.03 h -24.135 v 0 1.5237 c -0.9427,2.3338 -0.9327,4.7225 0,7.0588 v 1.52 c 0.25,0 0.4525,0.2112 0.4525,0.4725 0,0.2612 -0.2025,0.4712 -0.4525,0.4712 -0.25,0 -0.4537,-0.21 -0.4537,-0.4712 h -9.2438 c 0,0.2612 -0.2037,0.4725 -0.4537,0.4725 -0.25,0 -0.4525,-0.2113 -0.4525,-0.4725 0,-0.2613 0.2025,-0.4725 0.4525,-0.4725 v -1.65 c 0.9425,-2.3338 0.935,-4.5875 0,-6.9238 v -1.5275 h -37.5738 v 21.0813 56.05 21.0787 h 37.5929 m 0,0 v -1.5237 c 0.9427,-2.335 0.9327,-4.7213 0,-7.0575 v -1.5213 c -0.25,0 -0.4525,-0.21 -0.4525,-0.4712 0,-0.2613 0.2025,-0.4738 0.4525,-0.4738 0.2487,0 0.4525,0.2125 0.4525,0.4738 h 9.245 c 0,-0.2613 0.2037,-0.4738 0.4537,-0.4738 0.2488,0 0.4513,0.2125 0.4513,0.4738 0,0.26 -0.2025,0.4712 -0.4513,0.4712 v 1.65 c -0.9425,2.3338 -0.935,4.5875 0,6.9225 v 1.53 0 h 24.1359"
       inkscape:connector-curvature="0" />
    <path
       d="m 390.61508,398.39445 c 3.4513,0 6.25,2.7975 6.25,6.25 0,3.4525 -2.7987,6.25 -6.25,6.25 -3.4512,0 -6.25,-2.7975 -6.25,-6.25 0,-3.4525 2.7988,-6.25 6.25,-6.25 z"
       style="fill:none;stroke:#000000;stroke-width:0.9375;stroke-linecap:butt;stroke-linejoin:miter;stroke-miterlimit:4;stroke-dasharray:none;stroke-opacity:1"
       id="path2031"
       inkscape:connector-curvature="0" />
    <path
       d="m 390.61508,356.99615 c 3.4513,0 6.25,2.7975 6.25,6.25 0,3.4525 -2.7987,6.25 -6.25,6.25 -3.4512,0 -6.25,-2.7975 -6.25,-6.25 0,-3.4525 2.7988,-6.25 6.25,-6.25 z"
       style="fill:none;stroke:#000000;stroke-width:0.9375;stroke-linecap:butt;stroke-linejoin:miter;stroke-miterlimit:4;stroke-dasharray:none;stroke-opacity:1"
       id="path2033"
       inkscape:connector-curvature="0" />
    <path
       d="m 400.33308,213.61969 c -0.9813,0.004 -1.975,0.12375 -2.9938,0.0987 l -1.8375,0.002 c -2.0387,0.8 -4.73,0.8225 -7.2712,-0.002 h -1.8425 v -11.4375 h 1.8375 c 2.41,-0.7025 5.0787,-0.56625 7.2712,0.005 l 1.8425,-0.005 c 7.405,0 12.645,-4.94 13.3588,-12.04875 0,0 -4.3575,-3.76 -2.3225,-5.99375 1.5425,-1.6925 3.3787,0.905 4.9525,0.8075 2.4475,-0.1525 -0.4,-6.2325 5.26,-6.91 7.7212,-0.92375 8.4275,35.37625 -18.255,35.48375 z"
       style="fill:none;stroke:#000000;stroke-width:0.9375;stroke-linecap:butt;stroke-linejoin:miter;stroke-miterlimit:4;stroke-dasharray:none;stroke-opacity:1"
       id="path2040"
       inkscape:connector-curvature="0" />
    <path
       d="m 388.69728,181.05869 c 0.9813,-0.004 1.975,-0.12375 2.9938,-0.0987 l 1.8375,-0.002 c 2.0387,-0.8 4.7287,-0.8225 7.27,0.002 h 1.8425 v 11.4375 h -1.8375 c -2.4088,0.7025 -5.0788,0.56625 -7.27,-0.005 l -1.8425,0.005 c -7.405,0 -12.6463,4.94 -13.36,12.04875 0,0 4.3575,3.76 2.3225,5.99375 -1.5425,1.6925 -3.3775,-0.905 -4.9525,-0.8075 -2.4463,0.1525 0.4012,6.2325 -5.26,6.91 -7.72,0.92375 -8.4275,-35.37625 18.2562,-35.48375 z"
       style="fill:none;stroke:#000000;stroke-width:0.9375;stroke-linecap:butt;stroke-linejoin:miter;stroke-miterlimit:4;stroke-dasharray:none;stroke-opacity:1"
       id="path2042"
       inkscape:connector-curvature="0" />
    <path
       id="path4587"
       style="fill:none;stroke:#2c2c2c;stroke-width:0.9375;stroke-linecap:butt;stroke-linejoin:miter;stroke-miterlimit:4;stroke-dasharray:none;stroke-opacity:1"
       d="m 206.42693,20.73255 1.5e-4,-1.5262 h 44.09 v 92.6425 l 1.7824,-0.01 c 2.33735,-0.9324 4.7236,-0.9375 7.05875,0.01 h 1.78765 v 11.1 h -1.78655 c -2.3365,0.9324 -4.72275,0.9375 -7.05685,-0.005 l -1.7854,0.005 v 37.87127 0 h -9.1825 l -12.1912,-21.38497 h -55.6 l -12.19,21.38497 h -9.1825 v -37.87747 l -1.78525,0.01 c -2.3365,0.9324 -4.72275,0.9375 -7.0569,-0.01 h -1.78785 v -11.1013 h 1.785 c 2.33625,-0.9324 4.7225,-0.9375 7.056,0.005 l 1.7885,-0.005 v -92.635 h 44.0987 l -0.002,0.001 -1.5e-4,1.5301 c 0.93225,2.33635 0.93735,4.7226 -0.005,7.0569 l 0.005,-0.0107 v 1.5262 c -0.25,0 -0.4525,0.2113 -0.4525,0.4713 0,0.2612 0.2025,0.4737 0.4525,0.4737 0.25,0 0.4525,-0.2125 0.4525,-0.4737 h 9.2463 c 0,0.2612 0.2025,0.4737 0.4512,0.4737 0.2513,0 0.455,-0.2125 0.455,-0.4737 0,-0.2613 -0.2037,-0.4713 -0.455,-0.4713 l 0.01,-1.5205 c -0.93765,-2.3343 -0.93255,-4.72055 0,-7.0568 z m 0.20845,60.228 c 0.26,0 0.47,-0.2112 0.47,-0.475 0,-0.26 -0.21,-0.4712 -0.47,-0.4712 -0.2613,0 -0.4738,0.2112 -0.4738,0.4712 h -9.6537 c 0,-0.26 -0.21,-0.4712 -0.4713,-0.4712 -0.2612,0 -0.47,0.2112 -0.47,0.4712 0,0.2613 0.2088,0.4738 0.47,0.4738 v 9.6625 c -0.2612,0 -0.47,0.2112 -0.47,0.4712 0,0.2613 0.2088,0.4738 0.47,0.4738 0.2613,0 0.4713,-0.2125 0.4713,-0.4738 h 9.6537 c 0,0.26 0.2125,0.4725 0.4738,0.4725 0.26,0 0.47,-0.2125 0.47,-0.4725 0,-0.26 -0.21,-0.4725 -0.47,-0.4725 v -9.6663 z m 0,21.2744 c 0.26,0 0.47,-0.2112 0.47,-0.4725 0,-0.26 -0.21,-0.4712 -0.47,-0.4712 -0.2613,0 -0.4738,0.2112 -0.4738,0.4712 h -9.6537 c 0,-0.2612 -0.21,-0.4737 -0.4713,-0.4737 -0.2612,0 -0.47,0.2125 -0.47,0.4737 0,0.26 0.2088,0.4713 0.47,0.4713 v 9.665 c -0.2612,0 -0.47,0.2125 -0.47,0.4712 0,0.2613 0.2088,0.4738 0.47,0.4738 0.2613,0 0.4713,-0.2125 0.4713,-0.4738 h 9.6537 c 0,0.2588 0.2125,0.4713 0.4738,0.4713 0.26,0 0.47,-0.2125 0.47,-0.4713 0,-0.2612 -0.21,-0.4737 -0.47,-0.4737 v -9.6663 z"
       inkscape:connector-curvature="0"
       sodipodi:nodetypes="cccccccccccccccccccccccccccccccccssccssccccssccssccssccssccccssccssccssccssccc" />
    <path
       id="path4609"
       style="fill:none;stroke:#000000;stroke-width:0.9375;stroke-linecap:butt;stroke-linejoin:miter;stroke-miterlimit:4;stroke-dasharray:none;stroke-opacity:1"
       d="m 414.49658,21.75411 v -1.83875 h -11.435 v 1.84375 c -0.9475,2.335 -0.9324,4.93125 0,7.2675 v 1.83625 h -1.0538 c 0.5713,2.86375 -2.1975,8.07624 -5.495,10.18499 -11.07,7.07876 -11.5875,10.97501 -14.1137,16.17251 -1.93,3.9675 -11.8675,9.9175 -10.5463,12.91499 1.0925,2.47501 7.8113,-1.64749 8.795,-1.97999 -0.1437,4.72125 0.5313,14.21125 4.0238,13.38874 3.43,-0.80875 3.43,-13.69874 4.68,-18.15249 0.8762,-3.1225 2.9325,-8.925 7.4225,-8.75 2.65,0.105 5.6175,13.05 9.4962,11.3525 3.6288,-1.58625 -2.3012,-13.8325 -0.3825,-17.8675 0.9351,-1.96625 4.8263,-2.78625 6.745,-5.51625 2.0313,-2.89001 3.4375,-7.34376 3.1088,-11.7475 h -1.245 v -1.84125 c 0.9324,-2.33625 0.9475,-4.9325 0,-7.2675 z"
       inkscape:connector-curvature="0"
       sodipodi:nodetypes="ccccccccccccccccccccc" />
    <path
       id="path4619"
       style="fill:none;stroke:#000000;stroke-width:0.9375;stroke-linecap:butt;stroke-linejoin:miter;stroke-miterlimit:4;stroke-dasharray:none;stroke-opacity:1"
       d="m 391.92078,153.45566 v -2.36879 -0.001 h 3.5425 c 0,0 -0.8813,-32.6563 -9.375,-32.6563 -8.4938,0 -9.375,32.6575 -9.375,32.6575 h 3.5437 v 2.37499 c -0.9475,2.335 -0.9424,5.07735 -0.01,7.4136 v 1.875 h 11.6638 v -1.8813 c 0.9324,-2.33625 0.9575,-5.0787 0.01,-7.4137 z"
       inkscape:connector-curvature="0"
       sodipodi:nodetypes="ccccscccccccc" />
    <path
       id="path4629"
       style="fill:none;stroke:#000000;stroke-width:0.9375;stroke-linecap:butt;stroke-linejoin:miter;stroke-miterlimit:4;stroke-dasharray:none;stroke-opacity:1"
       d="m 391.60988,264.20019 2.4688,-0.004 c 0,0 -0.6675,-10.09875 -0.3513,-13.95375 0.3863,-4.73 6.0463,-11.2075 4.2875,-13.655 -1.8225,-2.53875 -6.295,3.62375 -7.48,2.8425 -1.535,-1.0125 -1.3625,-9.43 -4.6,-9.47875 -2.7975,-0.0437 -2.7425,8.625 -4.5725,9.49375 -1.53,0.7275 -5.9312,-5.34875 -7.5075,-2.81875 -1.3612,2.1825 3.265,8.9025 3.525,13.6425 0.2675,4.9025 0.3138,7.44875 0.067,13.955 l 2.4713,-0.004 0.01,1.78752 c -0.9475,2.33503 -0.9424,4.72128 10e-5,7.05688 l 0.0101,1.7831 11.6925,-0.02 -0.005,5e-4 -0.003,-1.78248 c 0.9294,-2.33497 0.9345,-4.72122 -0.013,-7.05625 z"
       inkscape:connector-curvature="0"
       sodipodi:nodetypes="ccccccccccccccccccc" />
    <path
       id="path4651"
       style="fill:none;stroke:#000000;stroke-width:0.9375;stroke-linecap:butt;stroke-linejoin:miter;stroke-miterlimit:4;stroke-dasharray:none;stroke-opacity:1"
       d="m 125.05993,381.15035 -1.78815,0.005 v 43.6188 H 24.929277 v 0 -43.6213 l -1.785,-0.006 c -2.33625,0.92675 -4.7225,0.93185 -7.05625,-0.005 l -1.78875,0.0106 v -11.1025 h 1.785 c 2.335,-0.9475 4.72125,-0.9424 7.0575,0 h 1.7875 v -43.615 h 98.342503 v 43.6188 l 1.785,0.005 c 2.335,-0.9423 4.72125,-0.9372 7.0575,-0.005 l 1.7875,-2e-4 v 11.1012 l -1.785,2e-4 c -2.33625,0.9326 -4.7225,0.9377 -7.05685,-0.005 z m -50.959353,-30.6377 c 13.9212,0 25.2062,11.285 25.2062,25.2075 0,13.9213 -11.285,25.2062 -25.2062,25.2062 -13.9213,0 -25.2063,-11.2849 -25.2063,-25.2062 0,-13.9225 11.285,-25.2075 25.2063,-25.2075 z"
       inkscape:connector-curvature="0"
       sodipodi:nodetypes="ccccccccccccccccccccccsssss" />
    <path
       id="path4691"
       style="fill:none;stroke:#000000;stroke-width:0.9375;stroke-linecap:butt;stroke-linejoin:miter;stroke-miterlimit:4;stroke-dasharray:none;stroke-opacity:1"
       d="m 398.31188,106.26848 h -11.435 v -1.83875 c -0.9475,-2.335 -0.9324,-4.93125 0,-7.2675 v -1.84125 h -1.245 c -0.3287,-4.40374 1.0775,-8.85749 3.1088,-11.7475 1.9187,-2.73 5.8099,-3.55 6.745,-5.51625 1.9187,-4.035 -4.0113,-16.28125 -0.3825,-17.8675 3.8787,-1.6975 6.8462,11.2475 9.4962,11.3525 4.49,0.175 6.5463,-5.6275 7.4225,-8.75 1.25,-4.45375 1.25,-17.34374 4.68,-18.15249 3.4925,-0.82251 4.1675,8.66749 4.0238,13.38874 0.9837,-0.3325 7.7025,-4.455 8.795,-1.97999 1.3212,2.99749 -8.6163,8.94749 -10.5463,12.91499 -2.5262,5.1975 -3.0437,9.09375 -14.1137,16.17251 -3.2975,2.10875 -6.0663,7.32124 -5.495,10.18499 h -1.0538 v 1.83625 c 0.9324,2.33625 0.9475,4.9325 0,7.2675 z"
       inkscape:connector-curvature="0"
       sodipodi:nodetypes="ccccccccccccccccccccc" />
    <path
       id="path4699"
       style="fill:none;stroke:#000000;stroke-width:0.9375;stroke-linecap:butt;stroke-linejoin:miter;stroke-miterlimit:4;stroke-dasharray:none;stroke-opacity:1"
       d="m 414.64908,130.29985 h 3.5437 c 0,0 -0.8812,32.6575 -9.375,32.6575 -8.4937,0 -9.375,-32.6563 -9.375,-32.6563 h 3.5425 v -0.001 -2.36879 c -0.9475,-2.335 -0.9224,-5.07745 0.01,-7.4137 v -1.8813 h 11.6638 v 1.875 c 0.9324,2.33625 0.9375,5.0786 -0.01,7.4136 z"
       inkscape:connector-curvature="0"
       sodipodi:nodetypes="ccscccccccccc" />
    <path
       id="path4707"
       style="fill:none;stroke:#000000;stroke-width:0.9375;stroke-linecap:butt;stroke-linejoin:miter;stroke-miterlimit:4;stroke-dasharray:none;stroke-opacity:1"
       d="m 415.85738,231.59025 -0.0101,-1.78315 -11.6925,0.02 0.005,-5e-4 0.003,1.78252 c -0.9294,2.33503 -0.9345,4.72128 0.013,7.05625 v 1.78873 l -2.4688,0.004 c 0,0 0.6675,10.09875 0.3513,13.95375 -0.3863,4.73 -6.0463,11.2075 -4.2875,13.655 1.8225,2.53875 6.295,-3.62375 7.48,-2.8425 1.535,1.0125 1.3625,9.43 4.6,9.47875 2.7975,0.0437 2.7425,-8.625 4.5725,-9.49375 1.53,-0.7275 5.9312,5.34875 7.5075,2.81875 1.3612,-2.1825 -3.265,-8.9025 -3.525,-13.6425 -0.2675,-4.9025 -0.3138,-7.44875 -0.067,-13.955 l -2.4713,0.004 -0.01,-1.78748 c 0.9475,-2.33497 0.9424,-4.72122 -1e-4,-7.05687 z"
       inkscape:connector-curvature="0"
       sodipodi:nodetypes="ccccccccccccccccccc" />
    <path
       sodipodi:nodetypes="cccccccccccccccccccccccccccccccccssccssccccssccssccssccssccccssccssccssccssccc"
       inkscape:connector-curvature="0"
       d="m 206.62658,171.60559 1.5e-4,-1.5262 h 44.09 v 92.6425 l 1.7824,-0.01 c 2.33735,-0.9324 4.7236,-0.9375 7.05875,0.01 h 1.78765 v 11.1 h -1.78655 c -2.3365,0.9324 -4.72275,0.9375 -7.05685,-0.005 l -1.7854,0.005 v 37.87127 0 h -9.1825 l -12.1912,-21.38497 h -55.6 l -12.19,21.38497 h -9.1825 v -37.87747 l -1.78525,0.01 c -2.3365,0.9324 -4.72275,0.9375 -7.0569,-0.01 h -1.78785 v -11.1013 h 1.785 c 2.33625,-0.9324 4.7225,-0.9375 7.056,0.005 l 1.7885,-0.005 v -92.635 h 44.0987 l -0.002,0.001 -1.5e-4,1.5301 c 0.93225,2.33635 0.93735,4.7226 -0.005,7.0569 l 0.005,-0.0107 v 1.5262 c -0.25,0 -0.4525,0.2113 -0.4525,0.4713 0,0.2612 0.2025,0.4737 0.4525,0.4737 0.25,0 0.4525,-0.2125 0.4525,-0.4737 h 9.2463 c 0,0.2612 0.2025,0.4737 0.4512,0.4737 0.2513,0 0.455,-0.2125 0.455,-0.4737 0,-0.2613 -0.2037,-0.4713 -0.455,-0.4713 l 0.01,-1.5205 c -0.93765,-2.3343 -0.93255,-4.72055 0,-7.0568 z m 0.20845,60.228 c 0.26,0 0.47,-0.2112 0.47,-0.475 0,-0.26 -0.21,-0.4712 -0.47,-0.4712 -0.2613,0 -0.4738,0.2112 -0.4738,0.4712 h -9.6537 c 0,-0.26 -0.21,-0.4712 -0.4713,-0.4712 -0.2612,0 -0.47,0.2112 -0.47,0.4712 0,0.2613 0.2088,0.4738 0.47,0.4738 v 9.6625 c -0.2612,0 -0.47,0.2112 -0.47,0.4712 0,0.2613 0.2088,0.4738 0.47,0.4738 0.2613,0 0.4713,-0.2125 0.4713,-0.4738 h 9.6537 c 0,0.26 0.2125,0.4725 0.4738,0.4725 0.26,0 0.47,-0.2125 0.47,-0.4725 0,-0.26 -0.21,-0.4725 -0.47,-0.4725 v -9.6663 z m 0,21.2744 c 0.26,0 0.47,-0.2112 0.47,-0.4725 0,-0.26 -0.21,-0.4712 -0.47,-0.4712 -0.2613,0 -0.4738,0.2112 -0.4738,0.4712 h -9.6537 c 0,-0.2612 -0.21,-0.4737 -0.4713,-0.4737 -0.2612,0 -0.47,0.2125 -0.47,0.4737 0,0.26 0.2088,0.4713 0.47,0.4713 v 9.665 c -0.2612,0 -0.47,0.2125 -0.47,0.4712 0,0.2613 0.2088,0.4738 0.47,0.4738 0.2613,0 0.4713,-0.2125 0.4713,-0.4738 h 9.6537 c 0,0.2588 0.2125,0.4713 0.4738,0.4713 0.26,0 0.47,-0.2125 0.47,-0.4713 0,-0.2612 -0.21,-0.4737 -0.47,-0.4737 v -9.6663 z"
       style="fill:none;stroke:#2c2c2c;stroke-width:0.9375;stroke-linecap:butt;stroke-linejoin:miter;stroke-miterlimit:4;stroke-dasharray:none;stroke-opacity:1"
       id="path4713" />
    <path
       inkscape:connector-curvature="0"
       id="path4730"
       style="fill:none;stroke:#000000;stroke-width:0.9375;stroke-linecap:butt;stroke-linejoin:miter;stroke-miterlimit:4;stroke-dasharray:none;stroke-opacity:1"
       d="m 512.62504,388.32677 c 0,0.2613 0.2125,0.4713 0.4725,0.4713 0.2612,0 0.4712,-0.21 0.4712,-0.4713 0,-0.2612 -0.21,-0.4712 -0.4712,-0.4712 v -9.6538 c 0.26,0 0.47,-0.2125 0.47,-0.4737 0,-0.2588 -0.21,-0.47 -0.47,-0.47 -0.2613,0 -0.4738,0.2112 -0.4738,0.47 h -9.66501 c 0,-0.2588 -0.2125,-0.47 -0.4712,-0.47 -0.2613,0 -0.4725,0.2112 -0.4725,0.47 0,0.2612 0.2112,0.4737 0.4725,0.4737 v 9.6538 c -0.2613,0 -0.4725,0.21 -0.4725,0.4712 0,0.2613 0.2112,0.4713 0.4725,0.4713 0.2587,0 0.4712,-0.21 0.4712,-0.4713 z" />
    <path
       sodipodi:nodetypes="cccssccsscccccccccccccssccsscccc"
       inkscape:connector-curvature="0"
       id="path4743"
       style="fill:none;stroke:#000000;stroke-width:0.9375;stroke-linecap:butt;stroke-linejoin:miter;stroke-miterlimit:4;stroke-dasharray:none;stroke-opacity:1"
       d="m 417.9537,443.02592 v 93.135 h 10.1275 c 0,-0.25 0.21,-0.4525 0.4713,-0.4525 0.2612,0 0.4724,0.2025 0.4724,0.4525 0,0.24875 -0.2112,0.45125 -0.4724,0.45125 v 9.24625 c 0.2613,0 0.4713,0.20375 0.4713,0.45375 0,0.24875 -0.21,0.45125 -0.4713,0.45125 -0.26,0 -0.4724,-0.2025 -0.4724,-0.45125 h -10.1288 v 38.32747 l 14.4975,10e-4 v -10e-4 l 12.19,-21.38622 h 66.2275 v 0 l 12.19,21.38622 v 10e-4 h 14.49742 v -38.32747 h -10.12876 c 0,0.24875 -0.2124,0.45125 -0.4724,0.45125 -0.2613,0 -0.4713,-0.2025 -0.4713,-0.45125 0,-0.25 0.21,-0.45375 0.4713,-0.45375 v -9.24625 c -0.2612,0 -0.4724,-0.2025 -0.4724,-0.45125 0,-0.25 0.2112,-0.4525 0.4724,-0.4525 0.2613,0 0.4713,0.2025 0.4713,0.4525 h 10.12746 v -93.1356 z" />
    <path
       inkscape:connector-curvature="0"
       id="path4747"
       style="fill:none;stroke:#000000;stroke-width:0.9375;stroke-linecap:butt;stroke-linejoin:miter;stroke-miterlimit:4;stroke-dasharray:none;stroke-opacity:1"
       d="m 500.2114,474.67141 c 0,1.3175 0.9225,2.385 2.0612,2.385 1.1375,0 2.0588,-1.0675 2.0588,-2.385 v -0.1425 c 0,-4.71875 3.8525,-8.54375 8.6012,-8.54375 4.7513,0 8.6025,3.825 8.6025,8.54375 l -0.01,0.1425 c 0,1.3175 0.925,2.385 2.06,2.385 1.1362,0 2.06366,-1.0675 2.06366,-2.385 v -0.13875 c 0,-7.01999 -5.69246,-12.70874 -12.70866,-12.70874 -7.0188,0 -12.7088,5.68875 -12.7088,12.70874 l -0.021,0.13875 z" />
    <path
       inkscape:connector-curvature="0"
       id="path4749"
       style="fill:none;stroke:#000000;stroke-width:0.9375;stroke-linecap:butt;stroke-linejoin:miter;stroke-miterlimit:4;stroke-dasharray:none;stroke-opacity:1"
       d="m 429.8879,474.67141 c 0,1.3175 0.9225,2.385 2.06,2.385 1.1387,0 2.0612,-1.0675 2.0612,-2.385 v -0.1425 c 0,-4.71875 3.8488,-8.54375 8.6013,-8.54375 4.75,0 8.6012,3.825 8.6012,8.54375 l -0.01,0.1425 c 0,1.3175 0.9225,2.385 2.06,2.385 1.1375,0 2.0613,-1.0675 2.0613,-2.385 v -0.13875 c 0,-7.01999 -5.6888,-12.70874 -12.7075,-12.70874 -7.0213,0 -12.7075,5.68875 -12.7075,12.70874 l -0.023,0.13875 z" />
    <path
       d="m 472.37571,512.39561 c -0.2613,0 -0.4713,0.2125 -0.4713,0.4725 0,0.2612 0.21,0.4712 0.4713,0.4712 0.2612,0 0.4712,-0.21 0.4712,-0.4712 h 9.6538 c 0,0.26 0.2125,0.47 0.4737,0.47 0.2588,0 0.47,-0.21 0.47,-0.47 0,-0.2613 -0.2112,-0.4738 -0.47,-0.4738 v -9.66501 c 0.2588,0 0.47,-0.2125 0.47,-0.4712 0,-0.2613 -0.2112,-0.4725 -0.47,-0.4725 -0.2612,0 -0.4737,0.2112 -0.4737,0.4725 h -9.6538 c 0,-0.2613 -0.21,-0.4725 -0.4712,-0.4725 -0.2613,0 -0.4713,0.2112 -0.4713,0.4725 0,0.2587 0.21,0.4712 0.4713,0.4712 z"
       style="fill:none;stroke:#000000;stroke-width:0.9375;stroke-linecap:butt;stroke-linejoin:miter;stroke-miterlimit:4;stroke-dasharray:none;stroke-opacity:1"
       id="path4751"
       inkscape:connector-curvature="0" />
    <path
       sodipodi:nodetypes="cccccssccsscccccccccssccssccccccccccccccccssccssccccc"
       inkscape:connector-curvature="0"
       id="path4761"
       style="fill:none;stroke:#000000;stroke-width:0.9375;stroke-linecap:butt;stroke-linejoin:miter;stroke-miterlimit:4;stroke-dasharray:none;stroke-opacity:1"
       d="m 451.29584,432.1593 -0.002,-44.0313 h 1.53 c 2.335,-0.9324 4.58875,-0.9425 6.9225,0 h 1.65 c 0,0.2525 0.21125,0.455 0.47125,0.455 0.26125,0 0.47375,-0.2025 0.47375,-0.455 0,-0.2487 -0.2125,-0.4512 -0.47375,-0.4512 l 0.002,-9.245 c 0.26125,0 0.47375,-0.2038 0.47375,-0.4538 0,-0.25 -0.2125,-0.4525 -0.47375,-0.4525 -0.26125,0 -0.47125,0.2025 -0.47125,0.4525 h -1.52 c -2.3375,0.9337 -4.72375,0.9437 -7.05875,0 h -1.52375 l -0.0187,-44.0287 h 24.135 v 1.5287 c 0.935,2.335 0.9425,4.5888 0,6.9225 v 1.6513 c -0.24875,0 -0.45125,0.2112 -0.45125,0.4712 0,0.2613 0.2025,0.4738 0.45125,0.4738 0.25125,0 0.455,-0.2125 0.455,-0.4738 h 9.24375 c 0,0.2613 0.20375,0.4725 0.4525,0.4725 0.25125,0 0.45375,-0.2112 0.45375,-0.4725 0,-0.2612 -0.2025,-0.4712 -0.45375,-0.4712 l 10e-4,-1.5213 c -0.93375,-2.3362 -0.9425,-4.7225 -10e-4,-7.0587 v -1.5225 h 37.59375 v 21.0787 l -9.85375,7.4313 9.85375,5.4912 v 30.205 l -9.85375,5.49 9.85375,7.4325 v 21.0813 h -37.57375 v -1.5288 c -0.935,-2.3362 -0.9425,-4.5887 0,-6.9237 v -1.6488 c 0.24875,0 0.45125,-0.2112 0.45125,-0.4725 0,-0.2612 -0.2025,-0.4725 -0.45125,-0.4725 -0.25,0 -0.45375,0.2113 -0.45375,0.4725 h -9.245 c 0,-0.2612 -0.20375,-0.4725 -0.4525,-0.4725 -0.25,0 -0.4525,0.2113 -0.4525,0.4725 0,0.2613 0.2025,0.4725 0.4525,0.4725 l -10e-4,1.52 c 0.93375,2.3363 0.94375,4.7238 10e-4,7.0575 l -2e-5,1.5244 z" />
    <text
       xml:space="preserve"
       style="font-style:normal;font-weight:normal;font-size:37.5px;line-height:1.25;font-family:sans-serif;letter-spacing:0px;word-spacing:0px;fill:#000000;fill-opacity:1;stroke:none;stroke-width:0.9375;stroke-miterlimit:4;stroke-dasharray:none"
       x="809.59821"
       y="759.72827"
       id="text4769"><tspan
         sodipodi:role="line"
         id="tspan4767"
         x="809.59821"
         y="793.94067"
         style="stroke-width:0.9375;stroke-miterlimit:4;stroke-dasharray:none" /></text>
  </g>
</svg>
